<svg xmlns="http://www.w3.org/2000/svg" xmlns:xlink="http://www.w3.org/1999/xlink" width="433" height="335" viewBox="0 0 433 335">
    <defs>
        <filter id="5pxlbr7l5a" width="876%" height="876%" x="-388%" y="-380.3%" filterUnits="objectBoundingBox">
            <feOffset dy="1" in="SourceAlpha" result="shadowOffsetOuter1"/>
            <feGaussianBlur in="shadowOffsetOuter1" result="shadowBlurOuter1" stdDeviation="16.5"/>
            <feColorMatrix in="shadowBlurOuter1" values="0 0 0 0 0.924337636 0 0 0 0 0.924337636 0 0 0 0 0.924337636 0 0 0 1 0"/>
        </filter>
        <filter id="hhuvwza0kc" width="1393.4%" height="1393.4%" x="-646.7%" y="-633.8%" filterUnits="objectBoundingBox">
            <feOffset dy="1" in="SourceAlpha" result="shadowOffsetOuter1"/>
            <feGaussianBlur in="shadowOffsetOuter1" result="shadowBlurOuter1" stdDeviation="16.5"/>
            <feColorMatrix in="shadowBlurOuter1" values="0 0 0 0 0.924337636 0 0 0 0 0.924337636 0 0 0 0 0.924337636 0 0 0 1 0"/>
        </filter>
        <filter id="r08k9fur1e" width="654.3%" height="654.3%" x="-277.2%" y="-271.6%" filterUnits="objectBoundingBox">
            <feOffset dy="1" in="SourceAlpha" result="shadowOffsetOuter1"/>
            <feGaussianBlur in="shadowOffsetOuter1" result="shadowBlurOuter1" stdDeviation="16.5"/>
            <feColorMatrix in="shadowBlurOuter1" values="0 0 0 0 0.924337636 0 0 0 0 0.924337636 0 0 0 0 0.924337636 0 0 0 1 0"/>
        </filter>
        <filter id="ww26plkzeg" width="1264.1%" height="1264.1%" x="-582%" y="-570.4%" filterUnits="objectBoundingBox">
            <feOffset dy="1" in="SourceAlpha" result="shadowOffsetOuter1"/>
            <feGaussianBlur in="shadowOffsetOuter1" result="shadowBlurOuter1" stdDeviation="16.5"/>
            <feColorMatrix in="shadowBlurOuter1" values="0 0 0 0 0.924337636 0 0 0 0 0.924337636 0 0 0 0 0.924337636 0 0 0 1 0"/>
        </filter>
        <filter id="w6gbgab54i" width="1555.1%" height="1555.1%" x="-727.5%" y="-713%" filterUnits="objectBoundingBox">
            <feOffset dy="1" in="SourceAlpha" result="shadowOffsetOuter1"/>
            <feGaussianBlur in="shadowOffsetOuter1" result="shadowBlurOuter1" stdDeviation="16.5"/>
            <feColorMatrix in="shadowBlurOuter1" values="0 0 0 0 0.924337636 0 0 0 0 0.924337636 0 0 0 0 0.924337636 0 0 0 1 0"/>
        </filter>
        <filter id="sla9bycvzk" width="1555.1%" height="1555.1%" x="-727.5%" y="-713%" filterUnits="objectBoundingBox">
            <feOffset dy="1" in="SourceAlpha" result="shadowOffsetOuter1"/>
            <feGaussianBlur in="shadowOffsetOuter1" result="shadowBlurOuter1" stdDeviation="16.5"/>
            <feColorMatrix in="shadowBlurOuter1" values="0 0 0 0 0.924337636 0 0 0 0 0.924337636 0 0 0 0 0.924337636 0 0 0 1 0"/>
        </filter>
        <filter id="u9xcgg590m" width="1555.1%" height="1555.1%" x="-727.5%" y="-713%" filterUnits="objectBoundingBox">
            <feOffset dy="1" in="SourceAlpha" result="shadowOffsetOuter1"/>
            <feGaussianBlur in="shadowOffsetOuter1" result="shadowBlurOuter1" stdDeviation="16.5"/>
            <feColorMatrix in="shadowBlurOuter1" values="0 0 0 0 0.924337636 0 0 0 0 0.924337636 0 0 0 0 0.924337636 0 0 0 1 0"/>
        </filter>
        <filter id="q50qhhft6o" width="995.4%" height="995.4%" x="-447.7%" y="-438.8%" filterUnits="objectBoundingBox">
            <feOffset dy="1" in="SourceAlpha" result="shadowOffsetOuter1"/>
            <feGaussianBlur in="shadowOffsetOuter1" result="shadowBlurOuter1" stdDeviation="16.5"/>
            <feColorMatrix in="shadowBlurOuter1" values="0 0 0 0 0.924337636 0 0 0 0 0.924337636 0 0 0 0 0.924337636 0 0 0 1 0"/>
        </filter>
        <filter id="trxbl9sowq" width="995.4%" height="995.4%" x="-447.7%" y="-438.8%" filterUnits="objectBoundingBox">
            <feOffset dy="1" in="SourceAlpha" result="shadowOffsetOuter1"/>
            <feGaussianBlur in="shadowOffsetOuter1" result="shadowBlurOuter1" stdDeviation="16.5"/>
            <feColorMatrix in="shadowBlurOuter1" values="0 0 0 0 0.924337636 0 0 0 0 0.924337636 0 0 0 0 0.924337636 0 0 0 1 0"/>
        </filter>
        <filter id="1lnijmgmos" width="995.4%" height="995.4%" x="-447.7%" y="-438.8%" filterUnits="objectBoundingBox">
            <feOffset dy="1" in="SourceAlpha" result="shadowOffsetOuter1"/>
            <feGaussianBlur in="shadowOffsetOuter1" result="shadowBlurOuter1" stdDeviation="16.5"/>
            <feColorMatrix in="shadowBlurOuter1" values="0 0 0 0 0.924337636 0 0 0 0 0.924337636 0 0 0 0 0.924337636 0 0 0 1 0"/>
        </filter>
        <circle id="gxdiupw7zb" cx="313.235" cy="257.004" r="6.443"/>
        <circle id="6ksvrvcpgd" cx="192.109" cy="299.097" r="3.866"/>
        <circle id="iksa2dw3wf" cx="193.827" cy="101.516" r="9.02"/>
        <circle id="j2h9fgveah" cx="336.288" cy="118.118" r="4.295"/>
        <circle id="trdbsggo9j" cx="159.894" cy="189.568" r="3.436"/>
        <circle id="hccnws3qkl" cx="322.255" cy="299.527" r="3.436"/>
        <circle id="pnspd0f3gn" cx="315.609" cy="49.305" r="3.436"/>
        <circle id="s4y108oa9p" cx="205.853" cy="45.677" r="5.584"/>
        <circle id="igci0io87r" cx="393.986" cy="199.447" r="5.584"/>
        <circle id="4ifr1ncmjt" cx="182.659" cy="239.823" r="5.584"/>
        <linearGradient id="4rpcktxf7u" x1="60.112%" x2="40.772%" y1="3.857%" y2="100%">
            <stop offset="0%" stop-color="#A0ECD8"/>
            <stop offset="100%" stop-color="#23CFA2"/>
        </linearGradient>
        <linearGradient id="7gntr2l70v" x1="71.392%" x2="30.478%" y1="3.857%" y2="100%">
            <stop offset="0%" stop-color="#A0ECD8"/>
            <stop offset="100%" stop-color="#23CFA2"/>
        </linearGradient>
        <linearGradient id="5tans5tx6w" x1="53.829%" x2="46.505%" y1="3.857%" y2="100%">
            <stop offset="0%" stop-color="#A0ECD8"/>
            <stop offset="100%" stop-color="#23CFA2"/>
        </linearGradient>
        <linearGradient id="n7l0c9z6fx" x1="77.23%" x2="25.15%" y1="45.08%" y2="55.331%">
            <stop offset="0%" stop-color="#A0ECD8"/>
            <stop offset="100%" stop-color="#23CFA2"/>
        </linearGradient>
    </defs>
    <g fill="none" fill-rule="evenodd">
        <g>
            <g transform="translate(-375 -1144) translate(375 1144)">
                <path fill="#F2F2F2" fill-rule="nonzero" d="M266.02 273.33l-.074.855c-2.832-.245-5.683-.368-8.55-.368v-.86c2.892 0 5.768.125 8.624.372z" transform="matrix(1 0 0 -1 0 547.143)"/>
                <path fill="#F2F2F2" fill-rule="nonzero" d="M283.006 271.865l-.222.83c-2.749-.736-5.534-1.352-8.348-1.846l.148-.846c2.84.498 5.649 1.12 8.422 1.862z" transform="matrix(1 0 0 -1 0 542.698)"/>
                <path fill="#F2F2F2" fill-rule="nonzero" d="M299.221 267.453l-.364.778c-2.582-1.209-5.217-2.304-7.898-3.282l.294-.807c2.705.987 5.364 2.092 7.968 3.31z" transform="matrix(1 0 0 -1 0 532.373)"/>
                <path fill="#F2F2F2" fill-rule="nonzero" d="M314.126 260.228l-.494.703c-2.333-1.64-4.738-3.177-7.205-4.607l.43-.744c2.49 1.443 4.915 2.994 7.27 4.648z" transform="matrix(1 0 0 -1 0 516.51)"/>
                <path fill="#F2F2F2" fill-rule="nonzero" d="M327.354 250.381l-.608.607c-2.015-2.02-4.116-3.952-6.297-5.79l.553-.657c2.2 1.854 4.32 3.803 6.352 5.84z" transform="matrix(1 0 0 -1 0 495.53)"/>
                <path fill="#F2F2F2" fill-rule="nonzero" d="M338.389 238.33l-.704.492c-1.635-2.336-3.372-4.6-5.204-6.786l.658-.552c1.849 2.205 3.6 4.489 5.25 6.845z" transform="matrix(1 0 0 -1 0 470.306)"/>
                <path fill="#F2F2F2" fill-rule="nonzero" d="M347.02 224.307l-.78.362c-1.203-2.587-2.52-5.12-3.944-7.59l.744-.43c1.438 2.493 2.765 5.048 3.98 7.658z" transform="matrix(1 0 0 -1 0 441.319)"/>
                <path fill="#F2F2F2" fill-rule="nonzero" d="M352.898 208.782l-.83.22c-.731-2.76-1.583-5.483-2.552-8.162l.808-.292c.977 2.702 1.836 5.45 2.574 8.234z" transform="matrix(1 0 0 -1 0 409.55)"/>
                <path fill="#F2F2F2" fill-rule="nonzero" d="M355.84 192.215l-.855.072c-.238-2.852-.6-5.682-1.083-8.484l.847-.146c.487 2.827.852 5.681 1.092 8.558z" transform="matrix(1 0 0 -1 0 375.943)"/>
                <path fill="#F2F2F2" fill-rule="nonzero" d="M355.802 175.23l-.856-.075c.25-2.83.378-5.68.382-8.546h.86c-.005 2.891-.134 5.767-.386 8.622z" transform="matrix(1 0 0 -1 0 341.84)"/>
                <path fill="#F2F2F2" fill-rule="nonzero" d="M352.792 158.195l-.83-.224c.741-2.75 1.362-5.535 1.861-8.35l.846.15c-.503 2.84-1.13 5.65-1.877 8.424z" transform="matrix(1 0 0 -1 0 307.815)"/>
                <path fill="#F2F2F2" fill-rule="nonzero" d="M346.85 141.673l-.777-.365c1.213-2.58 2.312-5.214 3.295-7.894l.807.296c-.992 2.704-2.101 5.36-3.325 7.963z" transform="matrix(1 0 0 -1 0 275.088)"/>
                <path fill="#F2F2F2" fill-rule="nonzero" d="M338.19 126.22l-.702-.495c1.644-2.33 3.185-4.731 4.618-7.196l.743.432c-1.446 2.486-3 4.908-4.658 7.26z" transform="matrix(1 0 0 -1 0 244.75)"/>
                <path fill="#F2F2F2" fill-rule="nonzero" d="M327.034 112.216l-.606-.61c2.023-2.01 3.958-4.108 5.799-6.286l.656.555c-1.857 2.197-3.809 4.313-5.85 6.34z" transform="matrix(1 0 0 -1 0 217.536)"/>
                <path fill="#F2F2F2" fill-rule="nonzero" d="M313.84 100.203l-.492-.704c2.34-1.632 4.608-3.365 6.798-5.195l.55.66c-2.208 1.845-4.496 3.593-6.856 5.24z" transform="matrix(1 0 0 -1 0 194.508)"/>
                <path fill="#F2F2F2" fill-rule="nonzero" d="M298.872 90.416l-.36-.78c2.588-1.199 5.122-2.51 7.594-3.93l.428.744c-2.494 1.433-5.05 2.756-7.662 3.966z" transform="matrix(1 0 0 -1 0 176.121)"/>
                <path fill="#F2F2F2" fill-rule="nonzero" d="M282.614 83.22l-.218-.83c2.762-.727 5.486-1.574 8.167-2.54l.29.81c-2.704.972-5.452 1.827-8.239 2.56z" transform="matrix(1 0 0 -1 0 163.072)"/>
                <path fill="#F2F2F2" fill-rule="nonzero" d="M265.567 78.86l-.07-.855c2.852-.234 5.683-.59 8.486-1.069l.144.847c-2.828.482-5.683.842-8.56 1.078z" transform="matrix(1 0 0 -1 0 155.797)"/>
                <path fill="#F2F2F2" fill-rule="nonzero" d="M248.453 77.46l.077-.856c2.83.253 5.68.386 8.545.395l-.003.859c-2.89-.01-5.764-.143-8.619-.399z" transform="matrix(1 0 0 -1 0 154.462)"/>
                <path fill="#F2F2F2" fill-rule="nonzero" d="M231.46 78.981l.225-.829c2.747.745 5.53 1.371 8.343 1.875l-.152.845c-2.838-.508-5.645-1.139-8.416-1.89z" transform="matrix(1 0 0 -1 0 159.024)"/>
                <path fill="#F2F2F2" fill-rule="nonzero" d="M215.27 83.448l.366-.777c2.58 1.218 5.212 2.322 7.89 3.31l-.296.806c-2.703-.997-5.359-2.11-7.96-3.34z" transform="matrix(1 0 0 -1 0 169.458)"/>
                <path fill="#F2F2F2" fill-rule="nonzero" d="M200.392 90.727l.496-.7c2.328 1.647 4.728 3.193 7.191 4.631l-.433.742c-2.485-1.451-4.905-3.01-7.254-4.673z" transform="matrix(1 0 0 -1 0 185.426)"/>
                <path fill="#F2F2F2" fill-rule="nonzero" d="M187.203 100.62l.61-.605c2.008 2.028 4.103 3.967 6.279 5.812l-.556.655c-2.194-1.861-4.308-3.817-6.333-5.862z" transform="matrix(1 0 0 -1 0 206.498)"/>
                <path fill="#F2F2F2" fill-rule="nonzero" d="M176.212 112.712l.706-.49c1.627 2.342 3.357 4.613 5.182 6.806l-.66.55c-1.842-2.212-3.586-4.503-5.228-6.866z" transform="matrix(1 0 0 -1 0 231.8)"/>
                <path fill="#F2F2F2" fill-rule="nonzero" d="M167.638 126.761l.78-.36c1.194 2.591 2.502 5.127 3.918 7.602l-.746.427c-1.428-2.497-2.747-5.055-3.952-7.669z" transform="matrix(1 0 0 -1 0 260.832)"/>
                <path fill="#F2F2F2" fill-rule="nonzero" d="M161.81 142.314l.831-.217c.723 2.763 1.565 5.49 2.525 8.172l-.808.29c-.969-2.707-1.82-5.457-2.548-8.245z" transform="matrix(1 0 0 -1 0 292.655)"/>
                <path fill="#F2F2F2" fill-rule="nonzero" d="M158.925 158.894l.857-.069c.228 2.853.58 5.684 1.054 8.489l-.847.143c-.478-2.83-.833-5.685-1.064-8.563z" transform="matrix(1 0 0 -1 0 326.282)"/>
                <path fill="#F2F2F2" fill-rule="nonzero" d="M159.02 175.884l.856.078c-.259 2.829-.396 5.678-.41 8.542l-.86-.004c.015-2.89.153-5.763.414-8.616z" transform="matrix(1 0 0 -1 0 360.388)"/>
                <path fill="#F2F2F2" fill-rule="nonzero" d="M162.09 192.923l.829.227c-.75 2.747-1.382 5.53-1.89 8.344l-.845-.153c.513-2.838 1.149-5.647 1.906-8.418z" transform="matrix(1 0 0 -1 0 394.417)"/>
                <path fill="#F2F2F2" fill-rule="nonzero" d="M168.082 209.422l.777.368c-1.221 2.575-2.33 5.204-3.32 7.879l-.806-.299c1-2.699 2.118-5.35 3.35-7.948z" transform="matrix(1 0 0 -1 0 427.09)"/>
                <path fill="#F2F2F2" fill-rule="nonzero" d="M176.797 224.855l.7.497c-1.65 2.326-3.2 4.722-4.643 7.182l-.74-.435c1.454-2.481 3.017-4.899 4.683-7.244z" transform="matrix(1 0 0 -1 0 457.389)"/>
                <path fill="#F2F2F2" fill-rule="nonzero" d="M187.992 238.818l.603.61c-2.03 2.005-3.972 4.097-5.82 6.27l-.655-.557c1.865-2.192 3.824-4.302 5.872-6.323z" transform="matrix(1 0 0 -1 0 484.515)"/>
                <path fill="#F2F2F2" fill-rule="nonzero" d="M201.226 250.796l.49.707c-2.346 1.623-4.62 3.349-6.815 5.17l-.548-.661c2.214-1.837 4.508-3.578 6.873-5.216z" transform="matrix(1 0 0 -1 0 507.47)"/>
                <path fill="#F2F2F2" fill-rule="nonzero" d="M216.227 260.537l.359.781c-2.594 1.19-5.133 2.494-7.61 3.906l-.426-.746c2.5-1.425 5.061-2.74 7.677-3.94z" transform="matrix(1 0 0 -1 0 525.761)"/>
                <path fill="#F2F2F2" fill-rule="nonzero" d="M232.5 267.678l.215.831c-2.764.718-5.492 1.556-8.176 2.512l-.288-.81c2.707-.964 5.46-1.81 8.248-2.533z" transform="matrix(1 0 0 -1 0 538.699)"/>
                <path fill="#F2F2F2" fill-rule="nonzero" d="M249.554 271.981l.067.857c-2.853.224-5.685.571-8.49 1.04l-.141-.847c2.83-.473 5.686-.823 8.564-1.05z" transform="matrix(1 0 0 -1 0 545.86)"/>
                <path fill="#F2F2F2" fill-rule="nonzero" d="M274.166 314.567l-.105.852c-5.64-.693-11.346-1.042-17.094-1.042v-.86c5.783 0 11.523.352 17.199 1.05z" transform="matrix(1 0 0 -1 0 628.937)"/>
                <path fill="#F2F2F2" fill-rule="nonzero" d="M307.533 310.412l-.311.8c-5.317-2.067-10.765-3.804-16.317-5.2l.21-.833c5.586 1.404 11.068 3.153 16.418 5.233z" transform="matrix(1 0 0 -1 0 616.391)"/>
                <path fill="#F2F2F2" fill-rule="nonzero" d="M337.807 298.05l-.498.7c-4.656-3.313-9.512-6.336-14.54-9.05l.407-.757c5.06 2.732 9.947 5.773 14.631 9.107z" transform="matrix(1 0 0 -1 0 587.693)"/>
                <path fill="#F2F2F2" fill-rule="nonzero" d="M363.166 278.266l-.654.558c-3.71-4.345-7.686-8.46-11.901-12.318l.58-.633c4.241 3.882 8.24 8.021 11.975 12.393z" transform="matrix(1 0 0 -1 0 544.697)"/>
                <path fill="#F2F2F2" fill-rule="nonzero" d="M382.132 252.263l-.77.382c-2.537-5.121-5.388-10.08-8.536-14.847l.716-.473c3.168 4.797 6.037 9.786 8.59 14.938z" transform="matrix(1 0 0 -1 0 489.97)"/>
                <path fill="#F2F2F2" fill-rule="nonzero" d="M393.467 221.61l-.84.18c-1.2-5.6-2.743-11.106-4.62-16.491l.81-.283c1.89 5.419 3.443 10.96 4.65 16.595z" transform="matrix(1 0 0 -1 0 426.807)"/>
                <path fill="#F2F2F2" fill-rule="nonzero" d="M396.481 188.23l-.859-.03c.055-1.597.082-3.197.082-4.808 0-4.132-.181-8.242-.54-12.322l.855-.076c.362 4.106.544 8.24.544 12.398 0 1.62-.027 3.23-.082 4.837z" transform="matrix(1 0 0 -1 0 359.224)"/>
                <path fill="#F2F2F2" fill-rule="nonzero" d="M391.103 153.989l-.826-.238c1.58-5.475 2.824-11.056 3.719-16.718l.848.134c-.9 5.697-2.15 11.313-3.741 16.822z" transform="matrix(1 0 0 -1 0 291.022)"/>
                <path fill="#F2F2F2" fill-rule="nonzero" d="M377.532 121.135l-.742-.434c2.886-4.93 5.464-10.034 7.72-15.286l.788.339c-2.269 5.285-4.863 10.42-7.766 15.381z" transform="matrix(1 0 0 -1 0 226.55)"/>
                <path fill="#F2F2F2" fill-rule="nonzero" d="M356.654 91.646l-.613-.601c4-4.08 7.747-8.404 11.217-12.943l.683.522c-3.492 4.567-7.262 8.917-11.287 13.022z" transform="matrix(1 0 0 -1 0 169.748)"/>
                <path fill="#F2F2F2" fill-rule="nonzero" d="M329.73 67.222l-.449-.732c4.873-2.983 9.559-6.264 14.03-9.823l.534.672c-4.498 3.581-9.212 6.883-14.116 9.883z" transform="matrix(1 0 0 -1 0 123.89)"/>
                <path fill="#F2F2F2" fill-rule="nonzero" d="M298.332 49.356l-.254-.82c5.466-1.694 10.813-3.725 16.014-6.078l.354.783c-5.234 2.368-10.614 4.41-16.114 6.115z" transform="matrix(1 0 0 -1 0 91.814)"/>
                <path fill="#F2F2F2" fill-rule="nonzero" d="M264.564 39.255l-.046-.858c5.735-.308 11.414-.965 17.015-1.966l.151.846c-5.636 1.006-11.35 1.668-17.12 1.978z" transform="matrix(1 0 0 -1 0 75.686)"/>
                <path fill="#F2F2F2" fill-rule="nonzero" d="M230.235 37.399l.163-.844c5.589 1.084 11.26 1.825 16.99 2.216l-.06.857c-5.764-.393-11.47-1.139-17.093-2.23z" transform="matrix(1 0 0 -1 0 76.183)"/>
                <path fill="#F2F2F2" fill-rule="nonzero" d="M197.545 43.885l.366-.777c5.164 2.433 10.479 4.545 15.916 6.323l-.267.816c-5.471-1.788-10.818-3.913-16.015-6.362z" transform="matrix(1 0 0 -1 0 93.355)"/>
                <path fill="#F2F2F2" fill-rule="nonzero" d="M168.45 58.443l.544-.664c4.418 3.627 9.055 6.979 13.884 10.035l-.46.726c-4.858-3.075-9.524-6.448-13.969-10.097z" transform="matrix(1 0 0 -1 0 126.318)"/>
                <path fill="#F2F2F2" fill-rule="nonzero" d="M144.756 80.093l.69-.511c3.403 4.59 7.086 8.967 11.026 13.106l-.622.592c-3.964-4.164-7.67-8.569-11.094-13.187z" transform="matrix(1 0 0 -1 0 172.862)"/>
                <path fill="#F2F2F2" fill-rule="nonzero" d="M127.814 107.575l.795-.327c2.175 5.288 4.676 10.433 7.487 15.407l-.748.422c-2.828-5.004-5.345-10.18-7.534-15.502z" transform="matrix(1 0 0 -1 0 230.326)"/>
                <path fill="#F2F2F2" fill-rule="nonzero" d="M118.787 139.11l.85-.121c.813 5.676 1.974 11.274 3.474 16.771l-.829.226c-1.509-5.531-2.677-11.164-3.495-16.876z" transform="matrix(1 0 0 -1 0 294.975)"/>
                <path fill="#F2F2F2" fill-rule="nonzero" d="M118.11 173.056l.855.088c-.489 4.752-.735 9.546-.735 14.374 0 .917.01 1.832.027 2.747l-.859.016c-.018-.92-.027-1.84-.027-2.763 0-4.857.248-9.68.74-14.462z" transform="matrix(1 0 0 -1 0 363.338)"/>
                <path fill="#F2F2F2" fill-rule="nonzero" d="M125.835 207.084l.807.295c-1.961 5.358-3.59 10.841-4.876 16.423l-.837-.193c1.294-5.616 2.933-11.134 4.906-16.525z" transform="matrix(1 0 0 -1 0 430.886)"/>
                <path fill="#F2F2F2" fill-rule="nonzero" d="M141.565 239.188l.71.484c-3.22 4.721-6.148 9.638-8.762 14.721l-.764-.393c2.63-5.115 5.576-10.061 8.816-14.812z" transform="matrix(1 0 0 -1 0 493.581)"/>
                <path fill="#F2F2F2" fill-rule="nonzero" d="M164.27 267.415l.571.642c-4.272 3.797-8.308 7.853-12.082 12.145l-.645-.568c3.798-4.317 7.858-8.399 12.157-12.219z" transform="matrix(1 0 0 -1 0 547.617)"/>
                <path fill="#F2F2F2" fill-rule="nonzero" d="M192.617 290.142l.397.762c-5.07 2.639-9.972 5.589-14.677 8.831l-.488-.707c4.735-3.263 9.667-6.231 14.768-8.886z" transform="matrix(1 0 0 -1 0 589.878)"/>
                <path fill="#F2F2F2" fill-rule="nonzero" d="M224.913 305.938l.196.836c-5.575 1.31-11.05 2.963-16.398 4.948l-.299-.806c5.382-1.997 10.891-3.66 16.5-4.978z" transform="matrix(1 0 0 -1 0 617.66)"/>
                <path fill="#F2F2F2" fill-rule="nonzero" d="M256.961 313.752v.859c-5.058 0-10.083.27-15.06.808l-.092-.854c5.008-.54 10.063-.813 15.152-.813z" transform="matrix(1 0 0 -1 0 629.171)"/>
                <g transform="matrix(1 0 0 -1 0 514.008)">
                    <use fill="#000" filter="url(#5pxlbr7l5a)" xlink:href="#gxdiupw7zb"/>
                    <use fill="#FFBF2E" xlink:href="#gxdiupw7zb"/>
                </g>
                <g transform="matrix(1 0 0 -1 0 598.195)">
                    <use fill="#000" filter="url(#hhuvwza0kc)" xlink:href="#6ksvrvcpgd"/>
                    <use fill="#3176E6" xlink:href="#6ksvrvcpgd"/>
                </g>
                <g transform="matrix(1 0 0 -1 0 203.031)">
                    <use fill="#000" filter="url(#r08k9fur1e)" xlink:href="#iksa2dw3wf"/>
                    <use fill="#F14148" xlink:href="#iksa2dw3wf"/>
                </g>
                <g transform="matrix(1 0 0 -1 0 236.236)">
                    <use fill="#000" filter="url(#ww26plkzeg)" xlink:href="#j2h9fgveah"/>
                    <use fill="#23CFA2" xlink:href="#j2h9fgveah"/>
                </g>
                <g transform="matrix(1 0 0 -1 0 379.137)">
                    <use fill="#000" filter="url(#w6gbgab54i)" xlink:href="#trdbsggo9j"/>
                    <use fill="#23CFA2" xlink:href="#trdbsggo9j"/>
                </g>
                <g transform="matrix(1 0 0 -1 0 599.054)">
                    <use fill="#000" filter="url(#sla9bycvzk)" xlink:href="#hccnws3qkl"/>
                    <use fill="#F2F2F2" xlink:href="#hccnws3qkl"/>
                </g>
                <g transform="matrix(1 0 0 -1 0 98.61)">
                    <use fill="#000" filter="url(#u9xcgg590m)" xlink:href="#pnspd0f3gn"/>
                    <use fill="#ED4047" xlink:href="#pnspd0f3gn"/>
                </g>
                <g transform="matrix(1 0 0 -1 0 91.354)">
                    <use fill="#000" filter="url(#q50qhhft6o)" xlink:href="#s4y108oa9p"/>
                    <use fill="#F2F2F2" xlink:href="#s4y108oa9p"/>
                </g>
                <g transform="matrix(1 0 0 -1 0 398.895)">
                    <use fill="#000" filter="url(#trxbl9sowq)" xlink:href="#igci0io87r"/>
                    <use fill="#FFBF2E" xlink:href="#igci0io87r"/>
                </g>
                <g transform="matrix(1 0 0 -1 0 479.646)">
                    <use fill="#000" filter="url(#1lnijmgmos)" xlink:href="#4ifr1ncmjt"/>
                    <use fill="#F2F2F2" xlink:href="#4ifr1ncmjt"/>
                </g>
                <path fill="#FFF" fill-rule="nonzero" d="M131.546 120.157c-3.701 0-6.701 3-6.701 6.7v4.983h13.401v-4.982c0-3.701-3-6.701-6.7-6.701zm.195 1.378c2.85.103 5.13 2.446 5.13 5.323v3.608H126.22v-3.608c0-2.942 2.385-5.327 5.327-5.327l.195.004z" transform="matrix(1 0 0 -1 0 251.997)"/>
                <rect width="1.718" height="6.013" x="130.686" y="108.818" fill="#FFF" fill-rule="nonzero" rx=".859"/>
                <circle cx="131.546" cy="115.69" r="1.718" fill="#FFF" fill-rule="nonzero" transform="matrix(1 0 0 -1 0 231.38)"/>
                <path fill="#FFF" fill-rule="nonzero" d="M140.995 103.835h-18.899c-1.328 0-2.405 1.077-2.405 2.405v12.886c0 1.329 1.077 2.405 2.405 2.405h18.9c1.328 0 2.404-1.076 2.404-2.405V106.24c0-1.328-1.076-2.405-2.405-2.405zm-18.899 1.374h18.9c.568 0 1.03.462 1.03 1.031v12.886c0 .57-.462 1.031-1.03 1.031h-18.9c-.57 0-1.03-.462-1.03-1.03V106.24c0-.569.46-1.03 1.03-1.03z" transform="matrix(1 0 0 -1 0 225.366)"/>
                <path fill="#FFF" d="M131.546 231.662c.474 0 .859.384.859.859v5.154c0 .475-.385.86-.86.86-.474 0-.859-.385-.859-.86v-5.154c0-.475.385-.86.86-.86z" transform="matrix(1 0 0 -1 0 470.196)"/>
                <path fill="#FFF" fill-rule="nonzero" d="M133.092 252.623c.38 0 .687.307.687.687 0 .35-.262.64-.601.682l-.086.005h-3.436c-.38 0-.688-.307-.688-.687 0-.35.263-.64.601-.682l.087-.005h3.436zm.859-2.577c.38 0 .687.307.687.687 0 .35-.262.64-.6.682l-.087.005h-5.154c-.38 0-.688-.308-.688-.687 0-.35.262-.64.601-.682l.087-.005h5.154zm.859-2.578c.38 0 .687.308.687.688 0 .35-.262.64-.6.682l-.087.005h-6.872c-.38 0-.688-.308-.688-.687 0-.35.262-.64.601-.682l.087-.006h6.872zm-3.436-24.483c5.124 0 9.277 4.154 9.277 9.278 0 1.449-1.059 4.863-3.198 10.38l-.77 1.962c-.365.915-1.25 1.516-2.236 1.516h-6.091c-.986 0-1.872-.6-2.236-1.517-2.694-6.781-4.024-10.824-4.024-12.34 0-5.125 4.154-9.279 9.278-9.279zm0 1.375c-4.365 0-7.904 3.538-7.904 7.903 0 1.133 1.07 4.498 3.184 9.942l.744 1.892c.156.392.535.65.958.65h6.091c.423 0 .802-.258.958-.65 2.572-6.469 3.872-10.476 3.872-11.834 0-4.365-3.538-7.903-7.903-7.903z" transform="matrix(1 0 0 -1 0 476.983)"/>
                <path fill="#FFF" fill-rule="nonzero" d="M256.967 28.41c-5.598 0-10.137 4.539-10.137 10.137v8.59c0 5.599 4.539 10.137 10.137 10.137 5.598 0 10.137-4.538 10.137-10.136v-8.59c0-5.6-4.539-10.138-10.137-10.138zm0 1.375c4.84 0 8.762 3.923 8.762 8.762v8.59c0 4.84-3.923 8.763-8.762 8.763-4.84 0-8.762-3.923-8.762-8.762v-8.59c0-4.84 3.923-8.763 8.762-8.763z" transform="matrix(1 0 0 -1 0 85.685)"/>
                <path fill="#FFF" fill-rule="nonzero" d="M256.967 39.578c-3.7 0-6.7 3-6.7 6.7 0 3.701 3 6.701 6.7 6.701s6.7-3 6.7-6.7c0-3.701-3-6.701-6.7-6.701zm0 1.374c2.942 0 5.326 2.385 5.326 5.327 0 2.941-2.384 5.326-5.326 5.326-2.941 0-5.326-2.385-5.326-5.326 0-2.942 2.385-5.327 5.326-5.327z" transform="matrix(1 0 0 -1 0 92.557)"/>
                <circle cx="256.967" cy="32.963" r="1.289" fill="#FFF" fill-rule="nonzero" transform="matrix(1 0 0 -1 0 65.927)"/>
                <circle cx="256.967" cy="46.279" r="1.289" fill="#FFF" fill-rule="nonzero" transform="matrix(1 0 0 -1 0 92.557)"/>
                <path fill="#FFF" fill-rule="nonzero" d="M257.654 25.333L257.654 29.098 256.28 29.098 256.28 25.333z" transform="matrix(1 0 0 -1 0 54.43)"/>
                <path fill="#FFF" fill-rule="nonzero" d="M264.518 24.646c.38 0 .688.307.688.687 0 .35-.262.64-.601.682l-.087.005h-15.503c-.38 0-.687-.308-.687-.687 0-.35.262-.64.601-.682l.086-.005h15.503z" transform="matrix(1 0 0 -1 0 50.666)"/>
                <path fill="url(#4rpcktxf7u)" d="M355.203 153.51c6.895 5.713 1.139 9.743 1.476 16.914.338 7.171.338 17.366-8.24 22.417-8.58 5.05-18.735 12.91-17.97 15.312.766 2.402 22.93-12.321 29.227-13.842 6.298-1.52 8.273 27.057 2.539 33.164-5.734 6.108-12.208 7.701-26.49 7.701-14.284 0-23.88 6.706-23.88 8.904 0 2.198 8.869 2.49 23.88 0 15.01-2.49 24.969-11.357 29.804-8.904 4.834 2.453 5.34 7.947 0 24.025-5.342 16.077-5.853 23.917-17.11 27.478-7.506 2.375-16.276-.71-26.31-9.253-5.38-2.832-8.802-3.45-10.265-1.853-2.194 2.395-3.384 9.677 0 13.056 3.384 3.379 14.854 6.725 21.308 6.725 6.453 0 18.418.899 13.476 10.789-4.943 9.89-12.802 20.223-28.022 24.574-10.147 2.9-30.042 2.07-59.684-2.493l23.375-162.33c13.17-2.984 18.904-1.475 17.2 4.53-2.554 9.007-5.754 27.493-4.154 31.77l.11.295c1.54 4.144 2.64 7.408 5.895-.294 3.33-7.884 2.505-32.694 8.785-40.69 6.28-7.995 38.156-13.708 45.05-7.995zm-85.849 132.538c-.856 2.351 4.288 6.382 11.488 9.003 7.2 2.62 13.73 2.839 14.587.488.855-2.351-4.288-6.382-11.488-9.003-7.2-2.62-13.731-2.839-14.587-.488zm25.83-31.787c-6.255 0-11.326 2.282-11.326 5.096 0 2.815 5.07 5.097 11.326 5.097 6.255 0 11.326-2.282 11.326-5.097 0-2.814-5.071-5.096-11.326-5.096zm-7.079-52.664c-1.407 0-2.548 3.042-2.548 6.795s1.141 6.795 2.548 6.795c1.408 0 2.549-3.042 2.549-6.795s-1.141-6.795-2.549-6.795z"/>
                <path fill="#1CCA9D" fill-rule="nonzero" d="M240.123 296.003c27.705 16.522 55.729 20.81 84.125 12.883.452-.126.92.138 1.046.59.126.451-.138.92-.59 1.046-28.855 8.055-57.357 3.695-85.45-13.06-.404-.24-.536-.762-.295-1.165.24-.403.761-.535 1.164-.294zm98.631-126.885c.424.202.603.709.401 1.132-7.565 15.869-21.498 35.714-39.674 57.637 23.913-2.197 40.438-6.593 49.539-13.134.381-.274.912-.187 1.186.194.273.381.186.912-.195 1.186-9.54 6.857-26.67 11.352-51.425 13.54-.18.016-.354-.026-.5-.11-5.64 6.757-11.677 13.705-18.045 20.79l-1.392 1.544c-9.52 10.536-19.211 20.724-27.754 29.278l-1.306 1.303c-3.386 3.37-6.382 6.27-8.688 8.413l-1.033.954c-2.266 2.08-3.24 2.851-3.78 2.851-.469 0-.849-.38-.849-.85 0-.469.38-.849.85-.849-.201 0 .277-.342.665-.668l.38-.325c.54-.465 1.208-1.064 1.986-1.78l.398-.367c2.468-2.287 5.787-5.5 9.553-9.26l1.247-1.25c8.579-8.613 18.274-18.828 27.765-29.359l.694-.771c27.556-30.652 48.856-58.745 58.845-79.698.202-.423.709-.603 1.132-.401z"/>
                <path fill="url(#7gntr2l70v)" d="M68.686 170.595l75.064 140.028c-25.472 13.974-43.308 21.322-53.506 22.044-15.297 1.082-25.875-5.72-33.651-13.086-7.776-7.366 2.818-12.148 8.692-14.287 5.875-2.138 15.208-8.984 17.17-13.181 1.96-4.197-1.535-10.432-4.326-11.885-1.861-.97-4.771.727-8.73 5.087-6.305 11.103-13.267 16.816-20.885 17.141-11.428.488-14.491-6.48-24.68-19.345-10.19-12.867-11.55-18.036-7.96-21.87 3.588-3.835 15.591.937 30.081-1.77s22.467-5.911 21.739-7.912c-.728-2-11.687-4.926-24.69-.194-13.001 4.733-19.422 5.427-26.666 1.767-7.243-3.66-14.914-30.329-8.677-31.031 6.237-.702 31.29 5.357 31.192 2.917-.1-2.441-11.948-6.23-21.431-7.986-9.483-1.755-12.86-11.035-14.93-17.676-2.068-6.64-4.382-11.454 0-18.939 4.384-7.485 27.994-3.946 36.36 1.252 8.367 5.198 18.875 22.21 24.52 28.283 5.643 6.073 5.427 2.435 5.466-1.99.039-4.425-9-20.192-14.31-27.545-3.54-4.902 1.18-8.176 14.158-9.822zm-7.66 103.855c-.237-2.717-5.323-4.49-11.36-3.962-6.036.528-10.737 3.158-10.5 5.874.238 2.717 5.325 4.49 11.361 3.963 6.037-.528 10.737-3.159 10.5-5.875z"/>
                <ellipse cx="77.497" cy="211.199" fill="url(#5tans5tx6w)" rx="2.469" ry="6.583" transform="scale(-1 1) rotate(20 0 -228.311)"/>
                <ellipse cx="110.001" cy="284.318" fill="url(#n7l0c9z6fx)" rx="13.44" ry="4.389" transform="scale(-1 1) rotate(40 0 -17.908)"/>
                <path fill="#979797" fill-rule="nonzero" d="M74.369 288.67c.232-.39.737-.518 1.128-.285 26.838 16.006 53.987 20.16 81.495 12.48.438-.122.892.134 1.014.572.122.438-.133.892-.571 1.014-27.954 7.803-55.565 3.579-82.781-12.653-.39-.232-.518-.738-.285-1.128z" transform="scale(-1 1) rotate(20 0 -361.43)"/>
                <path fill="#1CCA9D" fill-rule="nonzero" d="M19.479 192.19c.318-.323.84-.328 1.163-.01 16.035 15.765 44.734 34.281 79.975 53.055l.887.472c12.13 6.442 24.34 12.528 35.003 17.527l1.549.723c4.675 2.176 8.76 4.002 11.764 5.266l.485.202c.945.394 1.75.718 2.397.963l.454.169c.461.168 1.01.321.827.388.427-.156.9.065 1.055.492.155.427-.065.899-.492 1.054-.492.18-1.633-.2-4.385-1.342l-1.257-.527c-2.809-1.187-6.497-2.833-10.696-4.78l-1.62-.753c-10.611-4.957-22.81-11.02-34.967-17.457l-1.778-.945c-6.149-3.275-12.099-6.543-17.819-9.79-10.655-2.529-27.061-.86-49.17 5.043-.44.118-.89-.143-1.008-.582-.117-.44.144-.89.583-1.008 20.457-5.461 35.44-7.157 46.208-5.39-25.625-14.747-46.342-29.016-59.148-41.606-.325-.318-.329-.84-.01-1.163z"/>
                <rect width="164.483" height="334.071" x="117.371" fill="#F6F6F6" rx="26.658"/>
                <rect width="164.483" height="334.071" x="117.371" fill="#E4E4E4" rx="24.956"/>
                <path fill="#F6F6F6" d="M142.022 9.076l15.772.534c.543.019.997.42 1.082.957l.704 4.448c.49 3.095 3.158 5.373 6.291 5.373h66.413c3.443 0 6.362-2.53 6.85-5.94l.712-4.965c.08-.559.559-.973 1.123-.973h15.93c9.083 0 16.446 7.362 16.446 16.445v284.728c0 9.083-7.363 16.446-16.445 16.446H141.759c-9.083 0-16.445-7.363-16.445-16.446V25.227c0-8.925 7.235-16.16 16.16-16.16.183 0 .365.003.548.009z"/>
                <rect width="54.363" height="2.265" x="172.301" y="319.95" fill="#D8D8D8" rx="1.133"/>
                <rect width="122.317" height="24.916" x="138.324" y="284.274" fill="#23CFA2" rx="4.53"/>
                <rect width="192.014" height="119.542" x="85.219" y="58.243" fill="#3176E6" rx="10.46" transform="rotate(24 181.226 118.014)"/>
                <g fill="#FFF" fill-opacity=".19" transform="rotate(24 -147.234 295.308)">
                    <rect width="35.11" height="10.193" x=".418" y=".03" rx="1.494"/>
                    <rect width="35.11" height="10.193" x="42.323" y=".03" rx="1.494"/>
                    <rect width="35.11" height="10.193" x="84.228" y=".03" rx="1.494"/>
                    <rect width="35.11" height="10.193" x="126.133" y=".03" rx="1.494"/>
                </g>
                <rect width="119.486" height="10.46" x="88.671" y="135.279" fill="#FFF" fill-opacity=".19" rx="1.494" transform="rotate(24 148.414 140.51)"/>
                <path fill="#FFF" fill-opacity=".4" d="M139.623 67.847l9.654 4.298-1.851 4.159c-.636 1.428-2.31 2.07-3.739 1.435l-9.85-4.385c2.055-.415 3.991-2.29 5.786-5.507zm-5.524-12.44c2.377-4.398 4.636-5.932 6.811-4.964l.107.05.143.074c1.968 1.07 2.247 3.781.602 8.411l-.076.21-3.213 7.217-.23.431-.16.292c-2.2 3.925-4.342 5.253-6.48 4.3l-.11-.05-.149-.077c-2-1.082-2.314-3.714-.727-8.186l.076-.211 3.243-7.193zm-14.854 3.367l9.599 4.274c-1.163 3.498-1.244 6.199-.17 8.006l-9.845-4.383c-1.429-.636-2.071-2.31-1.435-3.738l1.851-4.16zm23.66 1.855l9.311 4.146-2.533 5.69-9.314-4.146 2.535-5.69zm.887-9.833l9.924 4.419c1.428.636 2.07 2.31 1.435 3.738l-1.959 4.397-9.658-4.301c1.217-3.634 1.33-6.416.258-8.253zm-21.063.85l9.31 4.145-2.563 5.678-9.28-4.132 2.533-5.69zm17.254.927c-.572-.254-1.241.003-1.496.574-.254.572.003 1.241.574 1.496.572.254 1.241-.003 1.496-.574.254-.572-.003-1.241-.574-1.496zm-11.126-8.426l9.867 4.392c-2.078.434-4.062 2.384-5.934 5.727l-9.63-4.287 1.959-4.397c.636-1.428 2.31-2.07 3.738-1.435z"/>
                <circle cx="220.257" cy="172.306" r="8.777" fill="#FFF" opacity=".342" transform="rotate(24 220.257 172.306)"/>
                <circle cx="231.12" cy="177.143" r="8.777" fill="#FFF" opacity=".342" transform="rotate(24 231.12 177.143)"/>
                <path fill="#FFF" fill-opacity=".4" fill-rule="nonzero" d="M270.486 108.41c.776 3.972.357 8-1.278 11.671-1.622 3.643-4.306 6.633-7.74 8.713-.402.243-.924.114-1.167-.287-.243-.401-.115-.924.287-1.167 3.142-1.903 5.59-4.628 7.068-7.95 1.49-3.347 1.873-7.02 1.163-10.655-.09-.46.21-.906.67-.996.461-.09.907.21.997.67zm-4.851.053c.61 3.251.254 6.542-1.082 9.545-1.325 2.974-3.503 5.423-6.29 7.143-.4.246-.923.122-1.17-.277-.245-.4-.122-.923.278-1.17 2.5-1.542 4.447-3.73 5.63-6.387 1.194-2.682 1.512-5.623.964-8.54-.086-.461.217-.905.678-.992.461-.086.905.217.992.678zm-4.851.065c.443 2.525.15 5.076-.887 7.407-1.038 2.33-2.737 4.255-4.91 5.615-.397.25-.922.129-1.17-.269-.25-.397-.13-.922.268-1.17 1.89-1.184 3.362-2.85 4.26-4.867.898-2.017 1.151-4.225.766-6.423-.081-.462.227-.902.69-.983.462-.081.902.228.983.69zm-4.86.028c.286 1.811.06 3.636-.683 5.306-.742 1.667-1.943 3.053-3.476 4.052-.393.256-.919.145-1.175-.248s-.145-.92.248-1.175c1.262-.823 2.244-1.956 2.85-3.32.61-1.366.794-2.858.558-4.35-.073-.463.243-.898.706-.971.464-.073.899.243.972.706z"/>
                <rect width="192.014" height="119.542" x="66.465" y="80.93" fill="#F6F6F6" rx="10.46" transform="rotate(12 162.471 140.7)"/>
                <g fill="#E9E9E9" transform="rotate(12 -548.957 459.142)">
                    <rect width="35.11" height="10.193" x=".418" y=".03" rx="1.494"/>
                    <rect width="35.11" height="10.193" x="42.323" y=".03" rx="1.494"/>
                    <rect width="35.11" height="10.193" x="84.228" y=".03" rx="1.494"/>
                    <rect width="35.11" height="10.193" x="126.133" y=".03" rx="1.494"/>
                </g>
                <rect width="119.486" height="10.46" x="75.31" y="164.297" fill="#E9E9E9" rx="1.494" transform="rotate(12 135.053 169.526)"/>
                <path fill="#E9E9E9" d="M111.347 100.28l10.335 2.197-.945 4.453c-.325 1.53-1.828 2.506-3.358 2.18l-10.547-2.24c1.924-.833 3.428-3.07 4.515-6.59zm-21.819-4.64l10.278 2.188c-.411 3.664.072 6.322 1.498 7.867l-10.541-2.242c-1.53-.325-2.506-1.829-2.181-3.358l.946-4.454zm13.829-6.38c1.41-4.796 3.301-6.766 5.63-6.271l.115.026.156.042c2.147.639 2.984 3.232 2.337 8.103l-.03.221-1.642 7.727-.094.328c-1.347 4.633-3.213 6.518-5.581 6.015l-.119-.027-.162-.044c-2.181-.643-3.035-3.152-2.413-7.857l.03-.222 1.677-7.71zm9.699 3.277l9.97 2.12-1.295 6.093-9.971-2.12 1.296-6.093zm-21.603-4.591l9.969 2.118-1.325 6.086-9.939-2.111 1.295-6.093zm20.425-5.213l10.627 2.26c1.53.326 2.506 1.83 2.181 3.359l-1.002 4.708-10.34-2.199c.434-3.809-.035-6.554-1.466-8.128zm-15.99-3.397l10.566 2.244c-1.943.857-3.478 3.177-4.614 6.836l-10.31-2.191 1-4.708c.326-1.53 1.83-2.506 3.359-2.18zm12.635 5.93c-.612-.13-1.213.26-1.343.871-.13.612.26 1.214.872 1.344.612.13 1.213-.26 1.343-.873.13-.611-.26-1.213-.872-1.343z"/>
                <circle cx="211.937" cy="185.692" r="8.777" fill="#404040" fill-opacity=".209" opacity=".342" transform="rotate(12 211.937 185.692)"/>
                <circle cx="223.569" cy="188.164" r="8.777" fill="#404040" fill-opacity=".209" opacity=".342" transform="rotate(12 223.569 188.164)"/>
                <path fill="#E4E4E4" fill-rule="nonzero" d="M247.784 112.748c1.585 3.724 2.012 7.752 1.177 11.682-.83 3.901-2.833 7.383-5.76 10.132-.342.32-.88.304-1.201-.038-.321-.342-.304-.88.038-1.2 2.678-2.516 4.505-5.69 5.261-9.247.762-3.584.372-7.256-1.078-10.664-.184-.431.017-.93.449-1.114.431-.184.93.017 1.114.449zm-4.734 1.061c1.273 3.053 1.609 6.346.926 9.562-.677 3.184-2.3 6.032-4.668 8.294-.339.324-.877.311-1.2-.028-.325-.34-.312-.877.027-1.201 2.125-2.029 3.574-4.574 4.179-7.419.61-2.872.31-5.815-.832-8.554-.18-.433.024-.93.457-1.11.433-.181.93.023 1.11.456zm-4.732 1.072c.959 2.378 1.203 4.934.672 7.43-.53 2.495-1.792 4.73-3.634 6.513-.337.326-.875.317-1.201-.02-.327-.337-.318-.875.02-1.2 1.602-1.552 2.695-3.486 3.154-5.646.459-2.16.247-4.373-.586-6.442-.176-.435.035-.93.47-1.106.435-.175.93.036 1.105.47zm-4.748 1.038c.657 1.712.816 3.543.435 5.332-.38 1.785-1.265 3.39-2.557 4.686-.331.332-.869.333-1.201.002-.332-.331-.333-.87-.002-1.201 1.063-1.067 1.788-2.38 2.099-3.84.31-1.463.181-2.96-.36-4.37-.168-.439.051-.93.49-1.098.437-.168.928.051 1.096.489z"/>
                <rect width="192.014" height="119.542" x="45.453" y="108.385" fill="#FFBF2E" rx="10.46"/>
                <path fill="#FFF" fill-opacity=".19" d="M178.882 196.823c.826 0 1.495.669 1.495 1.494v7.471c0 .826-.67 1.495-1.495 1.495H62.385c-.825 0-1.494-.67-1.494-1.495v-7.471c0-.825.67-1.494 1.494-1.494h116.497zM94.776 168.44c.826 0 1.495.67 1.495 1.494v7.205c0 .825-.67 1.494-1.495 1.494h-32.12c-.826 0-1.495-.669-1.495-1.494v-7.205c0-.825.669-1.494 1.494-1.494h32.121zm41.905 0c.825 0 1.494.67 1.494 1.494v7.205c0 .825-.669 1.494-1.494 1.494h-32.12c-.826 0-1.495-.669-1.495-1.494v-7.205c0-.825.669-1.494 1.494-1.494h32.121zm41.905 0c.825 0 1.494.67 1.494 1.494v7.205c0 .825-.669 1.494-1.494 1.494h-32.12c-.826 0-1.495-.669-1.495-1.494v-7.205c0-.825.669-1.494 1.494-1.494h32.121zm41.905 0c.825 0 1.494.67 1.494 1.494v7.205c0 .825-.669 1.494-1.494 1.494H188.37c-.825 0-1.494-.669-1.494-1.494v-7.205c0-.825.669-1.494 1.494-1.494h32.121z"/>
                <path fill="#FFF" fill-opacity=".4" d="M93.616 139.247v4.553c0 1.564-1.267 2.831-2.83 2.831l-10.783.001c1.647-1.17 2.642-3.538 3.008-6.995l.038-.389 10.567-.001zm-32.873 0H71.25l.006.058c.365 3.638 1.388 6.118 3.095 7.327H63.574c-1.563 0-2.831-1.268-2.831-2.832v-4.553zm16.404-16.422l.117.002.16.01c2.18.173 3.526 2.429 3.943 7.093l.029.346.016.23v7.892l-.023.34c-.346 4.7-1.721 6.939-4.042 7.04l-.167.004-.121-.002-.17-.01c-2.17-.167-3.506-2.262-3.94-6.592l-.032-.346-.036-.46.037-7.898.024-.344c.383-4.985 1.823-7.305 4.205-7.305zm-5.93 8.494l-.032 6.23H61.026v-6.23h10.19zm22.087 0v6.23H83.11l.001-6.23h10.194zm-13.383-9.344h10.864c1.564 0 2.832 1.269 2.832 2.832l-.001 4.813H83.043l-.007-.075c-.372-3.774-1.4-6.336-3.115-7.57zm-5.546 0c-1.663 1.2-2.67 3.653-3.053 7.255l-.039.39h-10.54v-4.813c0-1.563 1.268-2.831 2.831-2.831l10.8-.001zm2.79 3.173c-.625 0-1.132.508-1.132 1.133 0 .626.507 1.133 1.132 1.133.626 0 1.133-.507 1.133-1.133 0-.625-.507-1.133-1.133-1.133z"/>
                <circle cx="199.199" cy="201.88" r="8.777" fill="#FFF" opacity=".342"/>
                <circle cx="211.091" cy="201.88" r="8.777" fill="#FFF" opacity=".342"/>
                <path fill="#FFF" fill-opacity=".4" fill-rule="nonzero" d="M219.097 123.077c2.324 3.313 3.58 7.164 3.58 11.182 0 3.988-1.236 7.81-3.528 11.108-.268.385-.797.48-1.182.212-.386-.267-.48-.797-.213-1.182 2.097-3.017 3.224-6.502 3.224-10.138 0-3.664-1.145-7.174-3.272-10.207-.27-.384-.177-.913.207-1.183s.914-.176 1.184.208zm-4.41 2.022c1.88 2.722 2.893 5.873 2.893 9.16 0 3.256-.994 6.379-2.84 9.083-.265.388-.794.487-1.181.223-.388-.265-.487-.793-.223-1.18 1.657-2.427 2.545-5.217 2.545-8.126 0-2.937-.905-5.752-2.592-8.194-.267-.386-.17-.915.216-1.182.386-.267.915-.17 1.182.216zm-4.406 2.032c1.432 2.127 2.203 4.576 2.203 7.128 0 2.551-.77 5-2.201 7.126-.262.39-.79.493-1.18.23-.389-.261-.492-.789-.23-1.178 1.245-1.85 1.912-3.97 1.912-6.178 0-2.209-.667-4.329-1.913-6.18-.262-.388-.159-.916.23-1.178.39-.262.917-.16 1.18.23zm-4.428 2.003c.998 1.538 1.534 3.296 1.534 5.125 0 1.825-.533 3.58-1.527 5.115-.255.394-.78.506-1.175.252-.393-.255-.506-.781-.251-1.175.818-1.265 1.254-2.7 1.254-4.192 0-1.496-.438-2.934-1.26-4.2-.255-.394-.143-.92.25-1.175.394-.256.92-.144 1.175.25z"/>
                <path stroke="#E4E4E4" stroke-linecap="round" stroke-width="5.663" d="M138.324 248.032L258.942 248.032M139.512 261.04L260.13 261.04"/>
                <path fill="#3176E6" d="M158.252 332.718l-12.955-88.906c-.08-.557-.558-.97-1.12-.97H76.18l-5.977 91.172h86.927c.626 0 1.133-.507 1.133-1.132 0-.055-.004-.11-.012-.164z"/>
                <path fill="#3F81EB" d="M150.614 332.75l-10.437-88.907c-.067-.57-.55-1-1.125-1H73.916l-5.977 91.171h81.55c.625 0 1.132-.507 1.132-1.132 0-.045-.002-.089-.007-.133z"/>
                <path fill="#619CFD" d="M143.286 332.777l-8.228-88.906c-.054-.583-.543-1.028-1.128-1.028H69.841c-.58 0-1.067.439-1.127 1.016l-9.141 88.907c-.064.622.388 1.178 1.01 1.242.039.004.078.006.116.006h81.46c.625 0 1.132-.507 1.132-1.132 0-.035-.002-.07-.005-.105z"/>
                <circle cx="79.997" cy="253.695" r="2.831" fill="#3F81EB"/>
                <circle cx="121.335" cy="253.695" r="2.831" fill="#3F81EB"/>
                <path fill="#C51920" fill-rule="nonzero" d="M110.859 212.073c12.075 0 21.887 9.69 22.082 21.72l.003.365v8.685h-2.831v-8.685c0-10.634-8.62-19.254-19.254-19.254-10.527 0-19.081 8.449-19.251 18.935l-.003.319v8.685h-2.831v-8.685c0-12.197 9.888-22.085 22.085-22.085z"/>
                <path fill="#ED4047" fill-rule="nonzero" d="M100.666 212.073c12.075 0 21.887 9.69 22.082 21.72l.003.365v18.926c0 .781-.634 1.415-1.416 1.415-.75 0-1.365-.584-1.413-1.322l-.003-.093v-18.926c0-10.634-8.62-19.254-19.253-19.254-10.527 0-19.081 8.449-19.251 18.935l-.003.319v19.033c0 1.852-2.725 1.886-2.828.104l-.003-.104v-19.033c0-12.197 9.888-22.085 22.085-22.085z"/>
                <path fill="#FFF" fill-rule="nonzero" d="M192.4 300.564v-2.833h1.54c.829 0 1.471-.2 1.926-.602.456-.4.683-.938.683-1.61 0-.673-.224-1.21-.672-1.61-.449-.402-1.094-.602-1.937-.602h-3.455v7.257h1.916zm1.285-4.26h-1.284v-1.55h1.284c.38 0 .656.066.826.199.17.132.255.328.255.586 0 .245-.087.433-.26.566-.174.132-.447.199-.82.199zm5.624 4.342c.394 0 .749-.092 1.065-.275.21-.123.377-.275.498-.458l.026-.043v.694h1.815v-5.178H200.9v.658l-.027-.043c-.101-.152-.233-.285-.396-.4l-.102-.067c-.316-.194-.671-.29-1.065-.29-.442 0-.834.115-1.177.346-.344.231-.614.552-.81.963-.198.411-.296.889-.296 1.432 0 .537.096 1.006.29 1.407.194.4.464.71.81.928.347.217.741.326 1.183.326zm.57-1.376c-.332 0-.587-.11-.764-.332-.177-.22-.265-.538-.265-.953 0-.428.092-.759.275-.993.184-.235.435-.352.755-.352.326 0 .577.112.754.336.177.225.265.554.265.989 0 .421-.09.744-.27.968-.18.225-.43.337-.75.337zm4.095 3.618c.428-.047.823-.146 1.183-.295.36-.15.686-.37.978-.663.292-.292.547-.686.765-1.182l2.375-5.362h-1.815l-1.205 2.99-1.16-2.99h-1.916l2.108 4.82-.13.287c-.066.136-.146.258-.242.365l-.074.078c-.13.126-.298.233-.505.321-.207.089-.47.163-.79.225l.428 1.406z"/>
            </g>
        </g>
    </g>
</svg>
